<?xml version="1.0" encoding="utf-8"?>
<!-- Generator: Adobe Illustrator 19.2.0, SVG Export Plug-In . SVG Version: 6.00 Build 0)  -->
<svg version="1.1" id="Layer_1" xmlns="http://www.w3.org/2000/svg" xmlns:xlink="http://www.w3.org/1999/xlink" x="0px" y="0px"
	 viewBox="0 0 600 91.4" style="enable-background:new 0 0 600 91.4;" xml:space="preserve">
<style type="text/css">
	.st0{fill:#8BAA2D;}
	.st1{fill:#026061;}
	.st2{fill:#7B7256;}
	.st3{fill:none;stroke:#026061;stroke-width:2.5651;stroke-linecap:round;stroke-miterlimit:10;}
</style>
<g>
	<path class="st0" d="M9.1,15.3h6.5V39h14.8v6H9.1V15.3z"/>
	<path class="st0" d="M30.2,30.2L30.2,30.2c0-8.5,6.6-15.4,15.8-15.4S61.7,21.6,61.7,30v0.1c0,8.4-6.6,15.3-15.8,15.3
		S30.2,38.7,30.2,30.2z M54.9,30.2L54.9,30.2c0-5.2-3.7-9.4-9-9.4c-5.2,0-8.9,4.1-8.9,9.2v0.1c0,5.1,3.7,9.3,9,9.3
		S54.9,35.3,54.9,30.2z"/>
	<path class="st0" d="M61.5,15.3h7l6.1,20.1l6.6-20.1h5.6l6.6,20.1l6.1-20.1h6.8l-10,29.9h-5.7L84,25.8l-6.7,19.4h-5.7L61.5,15.3z"
		/>
	<path class="st0" d="M109.2,15.3h22.4v5.8h-15.9v6h14v5.8h-14v6.2h16.1V45h-22.6C109.2,45,109.2,15.3,109.2,15.3z"/>
	<path class="st0" d="M133.5,40.6l3.9-4.6c2.7,2.2,5.5,3.6,8.8,3.6c2.7,0,4.3-1.1,4.3-2.8v-0.1c0-1.7-1-2.5-6-3.8
		c-6-1.5-9.8-3.2-9.8-9.1v-0.1c0-5.4,4.3-8.9,10.4-8.9c4.3,0,8,1.4,11,3.8l-3.4,4.9c-2.6-1.8-5.2-2.9-7.7-2.9s-3.8,1.1-3.8,2.6v0.1
		c0,1.9,1.3,2.6,6.4,3.9c6,1.6,9.4,3.7,9.4,8.9v0.1c0,5.9-4.5,9.2-10.9,9.2C141.6,45.4,137.1,43.8,133.5,40.6z"/>
	<path class="st0" d="M166.9,21.3h-9v-6h24.6v6h-9V45H167V21.3H166.9z"/>
	<path class="st0" d="M196.1,15.3h12.1c7.1,0,11.3,4.2,11.3,10.2v0.1c0,6.9-5.3,10.4-12,10.4h-5v9H196L196.1,15.3L196.1,15.3z
		 M207.7,30.3c3.3,0,5.2-1.9,5.2-4.5v-0.1c0-2.9-2-4.5-5.3-4.5h-5v9.1H207.7z"/>
	<path class="st0" d="M222.3,15.3h13.5c3.8,0,6.7,1.1,8.6,3c1.7,1.7,2.5,4,2.5,6.8v0.1c0,4.8-2.6,7.8-6.3,9.2l7.2,10.6h-7.6
		l-6.4-9.5h-5.1V45h-6.5V15.3H222.3z M235.4,29.7c3.2,0,5-1.7,5-4.2v-0.1c0-2.8-1.9-4.2-5.1-4.2h-6.5v8.5H235.4z"/>
	<path class="st0" d="M251.2,15.3h6.5V45h-6.5L251.2,15.3L251.2,15.3z"/>
	<path class="st0" d="M261.7,30.2L261.7,30.2c0-8.5,6.4-15.4,15.5-15.4c5.6,0,8.9,1.9,11.7,4.6l-4.1,4.8c-2.3-2.1-4.6-3.3-7.6-3.3
		c-5,0-8.6,4.1-8.6,9.2v0.1c0,5.1,3.5,9.3,8.6,9.3c3.4,0,5.5-1.4,7.8-3.5l4.1,4.2c-3,3.3-6.4,5.3-12.1,5.3
		C268.2,45.5,261.7,38.7,261.7,30.2z"/>
	<path class="st0" d="M292.3,15.3h22.4v5.8h-15.9v6h14v5.8h-14v6.2h16.1V45h-22.6V15.3z"/>
	<path class="st1" d="M327.9,30.2L327.9,30.2c0-8.5,6.6-15.4,15.5-15.4c5.3,0,8.6,1.4,11.6,4.1l-4.1,5c-2.3-1.9-4.3-3-7.7-3
		c-4.7,0-8.5,4.2-8.5,9.2v0.1c0,5.4,3.7,9.4,9,9.4c2.4,0,4.5-0.6,6.1-1.8v-4.2h-6.6V28h12.9v12.9c-3,2.6-7.2,4.7-12.7,4.7
		C334.3,45.5,327.9,39,327.9,30.2z"/>
	<path class="st1" d="M359.9,32.3v-17h6.5v16.8c0,4.8,2.4,7.3,6.4,7.3s6.4-2.4,6.4-7.1v-17h6.5V32c0,9-5,13.4-13,13.4
		C364.8,45.4,359.9,41,359.9,32.3z"/>
	<path class="st1" d="M399.5,15.1h6L418.2,45h-6.8l-2.7-6.6h-12.5l-2.7,6.6h-6.6L399.5,15.1z M406.3,32.6l-3.9-9.6l-3.9,9.6H406.3z"
		/>
	<path class="st1" d="M420.7,15.3h13.5c3.8,0,6.7,1.1,8.6,3c1.7,1.7,2.5,4,2.5,6.8v0.1c0,4.8-2.6,7.8-6.3,9.2l7.2,10.6h-7.6
		l-6.4-9.5h-5.1V45h-6.5L420.7,15.3L420.7,15.3z M433.8,29.7c3.2,0,5-1.7,5-4.2v-0.1c0-2.8-1.9-4.2-5.1-4.2h-6.5v8.5H433.8z"/>
	<path class="st1" d="M459.4,15.1h6L478.2,45h-6.8l-2.7-6.6h-12.5l-2.7,6.6h-6.6L459.4,15.1z M466.3,32.6l-3.9-9.6l-3.9,9.6H466.3z"
		/>
	<path class="st1" d="M480.7,15.3h6l13.9,18.2V15.3h6.4V45h-5.5l-14.3-18.8V45h-6.4V15.3H480.7z"/>
	<path class="st1" d="M519,21.3h-9v-6h24.6v6h-9V45H519V21.3z"/>
	<path class="st1" d="M537.5,15.3h22.4v5.8H544v6h14v5.8h-14v6.2h16V45h-22.6L537.5,15.3L537.5,15.3z"/>
	<path class="st1" d="M563.8,15.3h22.4v5.8h-15.9v6h14v5.8h-14v6.2h16.1V45h-22.6V15.3z"/>
</g>
<g>
	<path class="st2" d="M9,79.5l2.8-3.4c2.5,2.2,5.2,3.4,8.5,3.4c3,0,4.8-1.3,4.8-3.4v0.1c0-1.9-1-3-6.1-4c-5.7-1.3-8.9-3.1-8.9-8
		v-0.1c0-4.6,3.9-7.7,9.1-7.7c3.9,0,7,1.2,9.7,3.4l-2.5,3.6c-2.4-1.8-4.8-2.7-7.3-2.7c-2.7,0-4.3,1.3-4.3,3.1v0.1
		c0,2.1,1.2,3,6.4,4.2c5.7,1.3,8.5,3.4,8.5,7.9v0.1c0,5.1-3.9,8-9.5,8C16.1,83.9,12.3,82.5,9,79.5z"/>
	<path class="st2" d="M39.8,61.1h-8.5v-4.3h21.6v4.3h-8.5v22.3h-4.8V61.1H39.8z"/>
	<path class="st2" d="M53.8,70.2L53.8,70.2c0-7.6,5.8-13.8,14-13.8s14,6.2,14,13.7v0.1c0,7.6-5.8,13.8-14,13.8
		C59.6,84,53.8,77.8,53.8,70.2z M76.8,70.2L76.8,70.2c0-5.2-3.7-9.5-9.1-9.5s-9.1,4.2-9.1,9.4v0.1c0,5.2,3.7,9.5,9.1,9.5
		C73.1,79.5,76.8,75.4,76.8,70.2z"/>
	<path class="st2" d="M85.9,56.8h10.6c6.2,0,10.1,3.6,10.1,8.9v0.1c0,5.9-4.8,9.1-10.7,9.1h-5.4v8.6h-4.8V56.8H85.9z M96,70.6
		c3.6,0,5.8-1.9,5.8-4.8l0,0c0-3.1-2.2-4.8-5.8-4.8h-5.5v9.7H96V70.6z"/>
	<path class="st2" d="M119.8,56.8h4.8v22.5h14v4.3h-18.7V56.8z"/>
	<path class="st2" d="M139.3,70.2L139.3,70.2c0-7.6,5.8-13.8,14-13.8s14,6.2,14,13.7v0.1c0,7.6-5.8,13.8-14,13.8
		C144.9,84,139.3,77.8,139.3,70.2z M162.3,70.2L162.3,70.2c0-5.2-3.7-9.5-9.1-9.5s-9.1,4.2-9.1,9.4v0.1c0,5.2,3.7,9.5,9.1,9.5
		C158.6,79.5,162.3,75.4,162.3,70.2z"/>
	<path class="st2" d="M170.2,70.2L170.2,70.2c0-7.6,5.8-13.8,14-13.8c8.2,0,14,6.2,14,13.7v0.1c0,7.6-5.8,13.8-14,13.8
		C175.9,84,170.2,77.8,170.2,70.2z M193.3,70.2L193.3,70.2c0-5.2-3.7-9.5-9.1-9.5s-9.1,4.2-9.1,9.4v0.1c0,5.2,3.7,9.5,9.1,9.5
		C189.6,79.5,193.3,75.4,193.3,70.2z"/>
	<path class="st2" d="M202.4,56.8h4.8v13.4l12.6-13.4h5.8l-11.2,11.5L226,83.4h-5.7l-9.1-12l-4.2,4.3v7.7h-4.8V56.8z"/>
	<path class="st2" d="M228.8,56.8h4.8v26.8h-4.8V56.8z"/>
	<path class="st2" d="M239.1,56.8h4.3l14.3,18.4V56.8h4.6v26.8h-3.9l-14.7-19v19h-4.6V56.8z"/>
	<path class="st2" d="M266.6,70.2L266.6,70.2c0-7.6,5.7-13.8,13.8-13.8c4.6,0,7.6,1.3,10.3,3.6l-3,3.6c-2.1-1.8-4-2.8-7.4-2.8
		c-4.9,0-8.6,4.3-8.6,9.4v0.1c0,5.5,3.6,9.5,9.1,9.5c2.5,0,4.8-0.7,6.4-2.1v-5.1h-6.8v-4h11.3v11.2c-2.7,2.2-6.4,4.2-11.2,4.2
		C272.1,84,266.6,78.1,266.6,70.2z"/>
	<path class="st2" d="M294.1,87.1c2.4-0.4,3.4-1.6,3.3-3.6h-1.9v-5.2h5.1v4.5c0,4.2-2.1,6.1-5.9,6.4L294.1,87.1z"/>
	<path class="st2" d="M322.8,73l-10.6-16.2h5.5l7.4,11.8l7.6-11.8h5.4l-10.6,16.1v10.7h-4.8V73z"/>
	<path class="st2" d="M337.3,70.2L337.3,70.2c0-7.6,5.8-13.8,14-13.8s14,6.2,14,13.7v0.1c0,7.6-5.8,13.8-14,13.8
		C343.1,84,337.3,77.8,337.3,70.2z M360.3,70.2L360.3,70.2c0-5.2-3.7-9.5-9.1-9.5s-9.1,4.2-9.1,9.4v0.1c0,5.2,3.7,9.5,9.1,9.5
		C356.6,79.5,360.3,75.4,360.3,70.2z"/>
	<path class="st2" d="M369.1,72.1V56.8h4.8V72c0,4.9,2.5,7.6,6.7,7.6c4.2,0,6.7-2.5,6.7-7.4V56.8h4.8V72c0,8-4.5,12-11.5,12
		C373.4,83.9,369.1,79.8,369.1,72.1z"/>
	<path class="st2" d="M406.9,56.8h19.9v4.3h-15.2v7.3h13.5v4.3h-13.5v10.9h-4.8V56.8z"/>
	<path class="st2" d="M428.9,70.2L428.9,70.2c0-7.6,5.8-13.8,14-13.8c8.2,0,14,6.2,14,13.7v0.1c0,7.6-5.8,13.8-14,13.8
		C434.7,84,428.9,77.8,428.9,70.2z M451.9,70.2L451.9,70.2c0-5.2-3.7-9.5-9.1-9.5s-9.1,4.2-9.1,9.4v0.1c0,5.2,3.7,9.5,9.1,9.5
		C448.2,79.5,451.9,75.4,451.9,70.2z"/>
	<path class="st2" d="M460.7,72.1V56.8h4.8V72c0,4.9,2.5,7.6,6.7,7.6c4.2,0,6.7-2.5,6.7-7.4V56.8h4.8V72c0,8-4.5,12-11.5,12
		C465,83.9,460.7,79.8,460.7,72.1z"/>
	<path class="st2" d="M488.5,56.8h4.3l14.3,18.4V56.8h4.6v26.8h-3.9l-14.7-19v19h-4.6V56.8z"/>
	<path class="st2" d="M517.1,56.8h10c8.3,0,14.1,5.8,14.1,13.2v0.1c0,7.6-5.8,13.4-14.1,13.4h-10V56.8z M521.8,61.1v18.1h5.2
		c5.7,0,9.2-3.7,9.2-9.1V70c0-5.2-3.7-9.1-9.2-9.1h-5.2V61.1z"/>
	<path class="st2" d="M555.6,56.8h4.8v26.8h-4.8V56.8z"/>
	<path class="st2" d="M572.6,61.1h-8.5v-4.3h21.7v4.3h-8.5v22.3h-4.8L572.6,61.1L572.6,61.1z"/>
</g>
<line class="st3" x1="9" y1="50" x2="587" y2="50"/>
</svg>
